<svg width="40" height="40" viewBox="0 0 40 40" fill="none" xmlns="http://www.w3.org/2000/svg">
<path d="M20 13.8777C16.5 13.8777 13.7109 16.7214 13.7109 20.1667C13.7109 23.6667 16.5 26.4558 20 26.4558C23.4453 26.4558 26.289 23.6667 26.289 20.1667C26.289 16.7214 23.4453 13.8777 20 13.8777ZM20 24.2683C17.7578 24.2683 15.8984 22.4636 15.8984 20.1667C15.8984 17.9246 17.7031 16.1199 20 16.1199C22.2422 16.1199 24.0469 17.9246 24.0469 20.1667C24.0469 22.4636 22.2422 24.2683 20 24.2683ZM27.9844 13.6589C27.9844 12.8386 27.3281 12.1824 26.5078 12.1824C25.6875 12.1824 25.0312 12.8386 25.0312 13.6589C25.0312 14.4792 25.6875 15.1355 26.5078 15.1355C27.3281 15.1355 27.9844 14.4792 27.9844 13.6589ZM32.1406 15.1355C32.0312 13.1667 31.5937 11.4167 30.1719 9.99487C28.75 8.573 27 8.1355 25.0312 8.02612C23.0078 7.91675 16.9375 7.91675 14.914 8.02612C12.9453 8.1355 11.25 8.573 9.77342 9.99487C8.35154 11.4167 7.91404 13.1667 7.80467 15.1355C7.69529 17.1589 7.69529 23.2292 7.80467 25.2527C7.91404 27.2214 8.35154 28.9167 9.77342 30.3933C11.25 31.8152 12.9453 32.2527 14.914 32.3621C16.9375 32.4714 23.0078 32.4714 25.0312 32.3621C27 32.2527 28.75 31.8152 30.1719 30.3933C31.5937 28.9167 32.0312 27.2214 32.1406 25.2527C32.25 23.2292 32.25 17.1589 32.1406 15.1355ZM29.5156 27.3855C29.1328 28.4792 28.2578 29.2996 27.2187 29.7371C25.5781 30.3933 21.75 30.2292 20 30.2292C18.1953 30.2292 14.3672 30.3933 12.7812 29.7371C11.6875 29.2996 10.8672 28.4792 10.4297 27.3855C9.77342 25.7996 9.93748 21.9714 9.93748 20.1667C9.93748 18.4167 9.77342 14.5886 10.4297 12.948C10.8672 11.9089 11.6875 11.0886 12.7812 10.6511C14.3672 9.99487 18.1953 10.1589 20 10.1589C21.75 10.1589 25.5781 9.99487 27.2187 10.6511C28.2578 11.0339 29.0781 11.9089 29.5156 12.948C30.1719 14.5886 30.0078 18.4167 30.0078 20.1667C30.0078 21.9714 30.1719 25.7996 29.5156 27.3855Z" fill="white"/>
</svg>
