<svg width="40" height="40" viewBox="0 0 40 40" fill="none" xmlns="http://www.w3.org/2000/svg">
<path d="M31.1016 14.4792C32.1953 13.6589 33.1797 12.6746 33.9453 11.5261C32.961 11.9636 31.8125 12.2917 30.6641 12.4011C31.8672 11.6902 32.7422 10.5964 33.1797 9.22925C32.086 9.8855 30.8281 10.3777 29.5703 10.6511C28.4766 9.50269 27 8.84644 25.3594 8.84644C22.1875 8.84644 19.6172 11.4167 19.6172 14.5886C19.6172 15.0261 19.6719 15.4636 19.7813 15.9011C15.0235 15.6277 10.7578 13.3308 7.91408 9.8855C7.42189 10.7058 7.14846 11.6902 7.14846 12.7839C7.14846 14.7527 8.13283 16.5027 9.71877 17.5417C8.78908 17.4871 7.85939 17.2683 7.09377 16.8308V16.8855C7.09377 19.6746 9.06252 21.9714 11.6875 22.5183C11.25 22.6277 10.7031 22.7371 10.211 22.7371C9.82814 22.7371 9.50002 22.6824 9.11721 22.6277C9.82814 24.9246 11.961 26.5652 14.4766 26.6199C12.5078 28.1511 10.0469 29.0808 7.36721 29.0808C6.87502 29.0808 6.43752 29.0261 6.00002 28.9714C8.51564 30.6121 11.5235 31.5417 14.8047 31.5417C25.3594 31.5417 31.1016 22.8464 31.1016 15.2449C31.1016 14.9714 31.1016 14.7527 31.1016 14.4792Z" fill="white"/>
</svg>
